<svg width="0" height="0" class="hidden">
    <symbol id="logo" viewBox="0 0 212 69" xmlns="http://www.w3.org/2000/svg" >
        <path d="M94.4935 54.4111C92.0566 54.4111 89.9525 53.8663 88.1813 52.777C86.4215 51.688 85.0621 50.1641 84.1031 48.2056C83.1554 46.2474 82.6816 43.9704 82.6816 41.3746C82.6816 38.7789 83.1554 36.5019 84.1031 34.5434C85.0621 32.5851 86.4215 31.0613 88.1813 29.972C89.9525 28.8827 92.0566 28.3381 94.4935 28.3381C97.2913 28.3381 99.6381 29.0508 101.533 30.476C103.44 31.9015 104.782 33.8308 105.561 36.2643L100.924 37.5853C100.473 36.0673 99.7114 34.8911 98.6397 34.0568C97.5677 33.2109 96.1859 32.7878 94.4935 32.7878C92.948 32.7878 91.6562 33.1412 90.6184 33.8482C89.5916 34.5549 88.8189 35.5517 88.2998 36.8378C87.7809 38.1241 87.5214 39.6363 87.5214 41.3746C87.5214 43.1127 87.7809 44.6251 88.2998 45.9112C88.8189 47.1975 89.5916 48.1941 90.6184 48.901C91.6562 49.6078 92.948 49.9611 94.4935 49.9611C96.1859 49.9611 97.5677 49.5383 98.6397 48.6925C99.7114 47.8464 100.473 46.6702 100.924 45.1637L105.561 46.4849C104.782 48.9182 103.44 50.8477 101.533 52.273C99.6381 53.6985 97.2913 54.4111 94.4935 54.4111ZM118.45 53.8896L121.834 46.8672L113.508 28.8596H118.721L124.237 41.8961L129.957 28.8596H134.865L123.357 53.8896H118.45ZM140.788 44.7466V41.0963H150.942V44.7466H140.788ZM170.434 28.3727C172.047 28.3727 173.491 28.761 174.766 29.5374C176.052 30.3138 177.068 31.3972 177.812 32.7878C178.557 34.1669 178.929 35.7659 178.929 37.5853V44.8509C178.929 46.8209 178.557 48.5244 177.812 49.9611C177.068 51.3866 176.018 52.4875 174.665 53.2639C173.311 54.0285 171.72 54.4111 169.892 54.4111C168.708 54.4111 167.58 54.2315 166.508 53.8722C165.447 53.5014 164.466 52.8931 163.563 52.047L166.846 48.675C167.253 49.0922 167.721 49.4166 168.251 49.6483C168.792 49.8802 169.34 49.996 169.892 49.996C170.772 49.996 171.534 49.7874 172.177 49.3702C172.831 48.9415 173.333 48.3911 173.683 47.719C174.044 47.0353 174.225 46.3109 174.225 45.5463V41.8264L175.003 42.6956C174.315 43.4256 173.508 43.9876 172.583 44.3817C171.658 44.764 170.705 44.9551 169.723 44.9551C168.189 44.9551 166.835 44.6018 165.662 43.895C164.5 43.1881 163.586 42.2205 162.92 40.9921C162.266 39.7639 161.939 38.3617 161.939 36.7858C161.939 35.2099 162.328 33.7903 163.106 32.5272C163.885 31.2524 164.917 30.2443 166.203 29.5028C167.489 28.7494 168.9 28.3727 170.434 28.3727ZM170.434 32.8921C169.734 32.8921 169.091 33.0659 168.505 33.4136C167.929 33.7613 167.467 34.2305 167.117 34.8216C166.779 35.4126 166.609 36.0673 166.609 36.7858C166.609 37.5043 166.779 38.1646 167.117 38.7673C167.456 39.3582 167.912 39.8333 168.488 40.1926C169.063 40.5403 169.701 40.714 170.4 40.714C171.099 40.714 171.737 40.5403 172.312 40.1926C172.899 39.8333 173.361 39.3582 173.7 38.7673C174.05 38.1646 174.225 37.5043 174.225 36.7858C174.225 36.0903 174.055 35.4474 173.717 34.8563C173.378 34.2653 172.922 33.7903 172.346 33.431C171.771 33.0718 171.133 32.8921 170.434 32.8921ZM199.983 54.4111C198.178 54.4111 196.598 54.0229 195.245 53.2465C193.891 52.47 192.836 51.3866 192.08 49.996C191.324 48.6054 190.946 46.9831 190.946 45.1291V37.6201C190.946 35.7659 191.324 34.1436 192.08 32.753C192.836 31.3626 193.891 30.279 195.245 29.5028C196.598 28.7263 198.178 28.3381 199.983 28.3381C201.788 28.3381 203.368 28.7263 204.721 29.5028C206.075 30.279 207.13 31.3626 207.886 32.753C208.642 34.1436 209.02 35.7659 209.02 37.6201V45.1291C209.02 46.9831 208.642 48.6054 207.886 49.996C207.13 51.3866 206.075 52.47 204.721 53.2465C203.368 54.0229 201.788 54.4111 199.983 54.4111ZM199.983 49.9265C200.795 49.9265 201.529 49.7295 202.183 49.3354C202.837 48.9415 203.356 48.4085 203.74 47.7364C204.124 47.0643 204.315 46.3109 204.315 45.4766V37.2376C204.315 36.4032 204.124 35.6501 203.74 34.978C203.356 34.3058 202.837 33.7728 202.183 33.3788C201.529 32.9849 200.795 32.7878 199.983 32.7878C199.171 32.7878 198.438 32.9849 197.783 33.3788C197.129 33.7728 196.61 34.3058 196.226 34.978C195.843 35.6501 195.651 36.4032 195.651 37.2376V45.4766C195.651 46.3109 195.843 47.0643 196.226 47.7364C196.61 48.4085 197.129 48.9415 197.783 49.3354C198.438 49.7295 199.171 49.9265 199.983 49.9265Z" />
        <path fill-rule="evenodd" clip-rule="evenodd" d="M32.1397 68.8876C49.5188 68.8876 63.6073 58.7245 63.6073 46.1877C63.6073 39.923 60.0893 34.251 54.4009 30.1438C57.9998 33.5417 60.1375 39.0783 60.1375 43.6847C60.1375 48.2912 57.9998 52.5373 54.4009 55.9353V30.1438V19.2007L46.1754 25.8653L45.8976 26.0902L37.7125 32.7223V63.4816C37.0121 63.5837 36.3022 63.6669 35.584 63.7305V31.8043L40.8698 27.2865V24.4889V24.3727V19.7483L21.8475 0.209717V24.7297V24.8959V27.0424L26.4834 31.8043V63.4694C25.7478 63.3604 25.0225 63.2307 24.3091 63.0812L24.2682 63.0726L24.2453 63.0676V35.9841L16.9685 26.7069L16.723 26.394L11.0809 19.2007V29.3199V56.9945C6.76065 53.4404 4.14182 48.7833 4.14182 43.6847C4.14182 39.0783 6.2796 33.708 9.87849 30.1438C4.19002 34.251 0.672119 39.923 0.672119 46.1877C0.672119 58.7245 14.7606 68.8876 32.1397 68.8876ZM53.0128 48.0971H48.6437V53.8153H53.0128V48.0971ZM45.2389 33.5528H40.8698V39.271H45.2389V33.5528ZM30.0601 16.3416H25.691V22.0598H30.0601V16.3416ZM17.663 41.8213H13.2939V47.5395H17.663V41.8213Z" />
    </symbol>

    <symbol id="close" viewBox="0 0 40 40" xmlns="http://www.w3.org/2000/svg" fill="none">
        <path d="M10.6668 30.513L9.48682 29.333L18.8202 19.9997L9.48682 10.6663L10.6668 9.48633L20.0002 18.8197L29.3335 9.48633L30.5135 10.6663L21.1802 19.9997L30.5135 29.333L29.3335 30.513L20.0002 21.1797L10.6668 30.513Z" fill="#EEEEEE"/>
    </symbol>
</svg>
